<svg xmlns="http://www.w3.org/2000/svg" width="264.04mm" height="64.77mm" viewBox="0 0 748.45 183.61">
  <defs>
    <style>
      .a {
        fill: white;
      }

      .b {
        fill: white;
      }
    </style>
  </defs>
  <title>APNIC-Formal-Logo_cmyk-svg-optimized</title>
  <path class="a" d="M184.93,137.19C154,146.53,146.54,172.68,137.79,200c-9.34,29.29-15.55,55.32,2.77,76l-5.26,4.71c-27.62-27.69-33.78-58-24-88.71,12-37.65,38.11-56.32,71.87-62.82Zm80,24.39c23.79,24.7,34.21,54.94,22.19,92.59-9.83,30.73-32.44,51.9-71.05,58.64l-1.57-6.87c27-6.36,37-31.16,46.38-60.44,8.75-27.35,17.83-53-2-78.41Z" transform="translate(-106.97 -129.2)"/>
  <path class="b" d="M193.76,191.28a15.14,15.14,0,1,1-15.14-15.14A15.14,15.14,0,0,1,193.76,191.28Zm30.37-15.14a15.14,15.14,0,1,0,15.14,15.14A15.14,15.14,0,0,0,224.13,176.14Zm-45.5,60.25a15.14,15.14,0,1,0,15.14,15.14A15.14,15.14,0,0,0,178.62,236.4Zm45.5,0a15.14,15.14,0,1,0,15.14,15.14A15.14,15.14,0,0,0,224.13,236.4Z" transform="translate(-106.97 -129.2)"/>
  <path class="a" d="M729.58,149.41V290.78H710.75V149.41Zm-279,141H412.16l-6.45-23.62h-42l-7.31,23.63H318.09l45.34-143.8h42.45l44.66,143.8ZM372.21,238.1h25.33L385,193.71Zm121.09,52.29h-36V146.79h52.84c16,0,28.65,3.54,37.49,10.54,9.55,7.55,14.63,20.42,14.63,35.78,0,15.69-5.34,29.62-14.63,37-8.85,7-21.47,10.55-37.49,10.55H493.29v49.77Zm0-80.95H510c16.37,0,18.68-6.66,18.68-16.33,0-9.51-2.31-16.07-18.68-16.07H493.29v32.4Zm358.23,62a77,77,0,0,1-29.27,5.35c-33.16,0-54.76-23.32-54.76-58.83,0-32.3,21.39-55.4,51.34-55.4,12.19,0,21.67,2.55,31.15,8.4l4.82-15.83a47.16,47.16,0,0,0-8.81-3.9,73.73,73.73,0,0,0-26.52-4.71c-40.43,0-71,31.23-71,72.52,0,43.42,30.16,74,72.73,74a78.07,78.07,0,0,0,19.47-2.35,79,79,0,0,0,14.77-5ZM670.63,290.11l-77.28-109.5v109.5H575.61V149.41h17.13l74.63,105.42V149.41h17.74v140.7Z" transform="translate(-106.97 -129.2)"/>
</svg>
